{
	"asset":{
		"generator":"Khronos glTF Blender I/O v4.5.48",
		"version":"2.0"
	},
	"scene":0,
	"scenes":[
		{
			"name":"Scene",
			"nodes":[
				0,
				1
			]
		}
	],
	"nodes":[
		{
			"mesh":0,
			"name":"Cube",
			"rotation":[
				0,
				-0.7071067094802856,
				0,
				0.7071068286895752
			]
		},
		{
			"mesh":1,
			"name":"Cube.001",
			"rotation":[
				0,
				-0.7071067094802856,
				0,
				0.7071068286895752
			]
		}
	],
	"materials":[
		{
			"doubleSided":true,
			"name":"Snail",
			"pbrMetallicRoughness":{
				"baseColorTexture":{
					"index":0
				},
				"metallicFactor":0,
				"roughnessFactor":0.2590909004211426
			}
		},
		{
			"doubleSided":true,
			"name":"Shell",
			"pbrMetallicRoughness":{
				"baseColorTexture":{
					"index":1
				},
				"metallicFactor":0,
				"roughnessFactor":0.3500000238418579
			}
		}
	],
	"meshes":[
		{
			"name":"Cube",
			"primitives":[
				{
					"attributes":{
						"POSITION":0,
						"NORMAL":1,
						"TEXCOORD_0":2
					},
					"indices":3,
					"material":0
				}
			]
		},
		{
			"name":"Cube.001",
			"primitives":[
				{
					"attributes":{
						"POSITION":4,
						"NORMAL":5,
						"TEXCOORD_0":6,
						"COLOR_0":7,
						"COLOR_1":8
					},
					"indices":9,
					"material":1
				}
			]
		}
	],
	"textures":[
		{
			"sampler":0,
			"source":0
		},
		{
			"sampler":0,
			"source":1
		}
	],
	"images":[
		{
			"mimeType":"image/png",
			"name":"Untitled",
			"uri":"textures/Untitled.png"
		},
		{
			"mimeType":"image/png",
			"name":"Texture",
			"uri":"textures/Texture.png"
		}
	],
	"accessors":[
		{
			"bufferView":0,
			"componentType":5126,
			"count":6506,
			"max":[
				0.4174753725528717,
				1.4587583541870117,
				1.520694375038147
			],
			"min":[
				-0.4174753725528717,
				-0.0010343053145334125,
				-1.6768709421157837
			],
			"type":"VEC3"
		},
		{
			"bufferView":1,
			"componentType":5126,
			"count":6506,
			"type":"VEC3"
		},
		{
			"bufferView":2,
			"componentType":5126,
			"count":6506,
			"type":"VEC2"
		},
		{
			"bufferView":3,
			"componentType":5123,
			"count":38208,
			"type":"SCALAR"
		},
		{
			"bufferView":4,
			"componentType":5126,
			"count":1848,
			"max":[
				0.48506492376327515,
				1.959937572479248,
				0.5566667914390564
			],
			"min":[
				-0.48506492376327515,
				0.27622196078300476,
				-1.5785361528396606
			],
			"type":"VEC3"
		},
		{
			"bufferView":5,
			"componentType":5126,
			"count":1848,
			"type":"VEC3"
		},
		{
			"bufferView":6,
			"componentType":5126,
			"count":1848,
			"type":"VEC2"
		},
		{
			"bufferView":7,
			"componentType":5121,
			"count":1848,
			"normalized":true,
			"type":"VEC4"
		},
		{
			"bufferView":8,
			"componentType":5123,
			"count":1848,
			"normalized":true,
			"type":"VEC4"
		},
		{
			"bufferView":9,
			"componentType":5123,
			"count":9792,
			"type":"SCALAR"
		}
	],
	"bufferViews":[
		{
			"buffer":0,
			"byteLength":78072,
			"byteOffset":0,
			"target":34962
		},
		{
			"buffer":0,
			"byteLength":78072,
			"byteOffset":78072,
			"target":34962
		},
		{
			"buffer":0,
			"byteLength":52048,
			"byteOffset":156144,
			"target":34962
		},
		{
			"buffer":0,
			"byteLength":76416,
			"byteOffset":208192,
			"target":34963
		},
		{
			"buffer":0,
			"byteLength":22176,
			"byteOffset":284608,
			"target":34962
		},
		{
			"buffer":0,
			"byteLength":22176,
			"byteOffset":306784,
			"target":34962
		},
		{
			"buffer":0,
			"byteLength":14784,
			"byteOffset":328960,
			"target":34962
		},
		{
			"buffer":0,
			"byteLength":7392,
			"byteOffset":343744,
			"target":34962
		},
		{
			"buffer":0,
			"byteLength":14784,
			"byteOffset":351136,
			"target":34962
		},
		{
			"buffer":0,
			"byteLength":19584,
			"byteOffset":365920,
			"target":34963
		}
	],
	"samplers":[
		{
			"magFilter":9729,
			"minFilter":9987
		}
	],
	"buffers":[
		{
			"byteLength":385504,
			"uri":"scene.bin"
		}
	]
}
